<?xml version="1.0" encoding="UTF-8"?>
<svg id="Camada_2" data-name="Camada 2" xmlns="http://www.w3.org/2000/svg" xmlns:xlink="http://www.w3.org/1999/xlink" viewBox="0 0 1890.67 962.5">
  <defs>
    <style>
      .cls-1 {
        opacity: .12;
      }

      .cls-2 {
        fill: none;
      }

      .cls-3 {
        clip-path: url(#clippath-1);
      }

      .cls-4 {
        fill: #5700ff;
      }

      .cls-5 {
        fill: #1d0746;
      }

      .cls-6 {
        clip-path: url(#clippath);
      }
    </style>
    <clipPath id="clippath">
      <rect class="cls-2" width="1890.67" height="962.5"/>
    </clipPath>
    <clipPath id="clippath-1">
      <rect class="cls-2" x="-78.78" y="-11.48" width="2045.53" height="1041.33"/>
    </clipPath>
  </defs>
  <g id="Camada_1-2" data-name="Camada 1">
    <g class="cls-6">
      <rect class="cls-5" x="-1.35" width="1890.67" height="962.5"/>
      <g class="cls-3">
        <g class="cls-1">
          <g>
            <path class="cls-4" d="M1084.25,279.06v145.96c-80.68-.73-145.64,65.16-145.67,146.19-.03,80.51-66.68,144.71-145.85,144.4-79.66-.31-144.96-65.09-145.02-145.52-.06-80.61-65.2-145.22-144.92-145.54-79.23-.32-145.76,63.77-145.77,144.37-.01,80.89-64.89,146.37-145.22,146.69-79.87.32-146.1-64.6-146.07-145.56.03-80.57-65.63-145.79-145.46-145.5v-145.96c79.02-.19,145.56,64.75,145.51,144.72-.06,81.48,65.43,146.86,146.05,146.56,80.2-.29,144.93-65.54,144.94-146.53,0-80.51,66.68-144.82,146.05-144.52,78.95.3,144.9,64.43,144.95,144.55.06,80.47,63.83,145.55,143.88,146.51,78.67.93,146.44-62.47,146.48-143.03.04-81.4,64.62-148.42,146.13-147.78Z"/>
            <path class="cls-4" d="M-65.19-11.94C6.37-4.53,65.48,56.71,65.39,131.08c-.1,81.7,64.38,147.66,145.3,147.96,81.4.3,146.52-65.85,146.42-147.96-.09-74.35,59.01-135.67,131.17-143.02h28.51c74.76,7.56,131.3,71.51,131.39,147.7.09,80.75,67.94,144.24,146.65,143.28,80.87-.98,144.3-66.75,144.27-147.94-.03-74.37,59-135.64,131.18-143.03h13.97v145.96c-80.55-.52-145.49,65.22-145.5,146.21-.01,80.16-66.01,144.25-144.94,144.55-79.4.31-146.04-64.01-146.05-144.52-.01-80.99-64.76-146.22-144.94-146.53s-146.05,65.12-146.07,146.53c-.02,80.07-65.93,144.22-144.96,144.52-78.61.31-145.78-63.26-145.83-143.39-.05-81.42-64.36-147.9-145.7-147.84V-11.94h14.55Z"/>
            <path class="cls-4" d="M1084.25,570.06v145.96c-79.84-.75-145.48,64.46-145.46,145.04.02,80.51-65.48,145.25-144.97,145.56-80.01.31-146.08-64.65-146.11-145.53-.03-80.58-65.23-145.21-144.92-145.52-79.24-.31-145.77,63.76-145.78,144.36,0,80.88-64.89,146.4-145.21,146.69-79.88.29-146.09-64.59-146.07-145.56.02-80.58-65.62-145.77-145.46-145.5v-145.96c78.97.12,145.35,64.76,145.33,144.75-.02,81.08,64.78,146.39,145.12,146.71,79.95.32,146-64.48,146-145.52,0-80.9,66.1-145.82,146.1-145.53,79.54.29,144.95,65.07,144.98,145.54.03,80.57,65.23,145.2,144.93,145.51,79.24.31,145.76-63.75,145.78-144.37.02-80.91,65.15-146.97,145.75-146.62Z"/>
            <path class="cls-4" d="M782.77,1152.05h-135.57c.77-80.1-64.56-145.21-144.38-145.5-80.32-.29-146.29,64.96-146.07,145.5h-133.86c76.24-6.39,133.95-70.69,134.05-147.77.1-80.22,67.15-143.75,145.86-143.45,78.29.3,144.62,63.64,144.76,143.47.13,75.11,54.93,138.97,130.86,146.79l4.34.97Z"/>
            <path class="cls-4" d="M357.13-11.94c-.03,80.46-66.19,145.86-146.44,145.57-79.73-.29-145.32-65.54-144.93-145.57h291.38Z"/>
            <path class="cls-4" d="M939.13-11.94c0,80.46-66.22,145.85-146.44,145.56s-145.31-65.54-144.93-145.56h291.38Z"/>
            <path class="cls-4" d="M200.78,1152.05H65.28c.66-66.34-44.88-125.13-110.27-141.29-1.74,3.04-3.2,5.01-5.29,7.42l3.69.36c.71.07.53,2.25.25,2.97l-16.87.07-.16-3.17h10.67c-2.94-2.51-3.98-2.86-5.27-6.9l5.8,4.42,6.35-5.58-33.91-3.8v-145.97c78.28-.16,145.28,63.99,145.33,143.66.05,75.2,54.98,139.01,130.83,146.83l4.35.97Z"/>
            <path class="cls-4" d="M1084.25,861.06v145.96c-80.08-.76-145.78,64.95-145.5,145.03h-135.02l4.35-.96c75.85-7.83,130.79-71.64,130.83-146.83.05-79.71,67.05-143.81,145.34-143.2Z"/>
          </g>
        </g>
        <g class="cls-1">
          <g>
            <path class="cls-4" d="M2248.24,279.06v145.96c-80.68-.73-145.64,65.16-145.67,146.19-.03,80.51-66.68,144.71-145.85,144.4-79.66-.31-144.96-65.09-145.02-145.52-.06-80.61-65.2-145.22-144.92-145.54-79.23-.32-145.76,63.77-145.77,144.37-.01,80.89-64.89,146.37-145.22,146.69-79.87.32-146.1-64.6-146.07-145.56.03-80.57-65.63-145.79-145.46-145.5v-145.96c79.02-.19,145.56,64.75,145.51,144.72-.06,81.48,65.43,146.86,146.05,146.56,80.2-.29,144.93-65.54,144.94-146.53,0-80.51,66.68-144.82,146.05-144.52,78.95.3,144.9,64.43,144.95,144.55.06,80.47,63.83,145.55,143.88,146.51,78.67.93,146.44-62.47,146.48-143.03.04-81.4,64.62-148.42,146.13-147.78Z"/>
            <path class="cls-4" d="M1098.8-11.94c71.56,7.41,130.67,68.65,130.58,143.02-.1,81.7,64.38,147.66,145.3,147.96,81.4.3,146.52-65.85,146.42-147.96-.09-74.35,59.01-135.67,131.17-143.02h28.51c74.76,7.56,131.3,71.51,131.39,147.7.09,80.75,67.94,144.24,146.65,143.28,80.87-.98,144.3-66.75,144.27-147.94-.03-74.37,59-135.64,131.18-143.03h13.97v145.96c-80.55-.52-145.49,65.22-145.5,146.21-.01,80.16-66.01,144.25-144.94,144.55-79.4.31-146.04-64.01-146.05-144.52-.01-80.99-64.76-146.22-144.94-146.53s-146.05,65.12-146.07,146.53c-.02,80.07-65.93,144.22-144.96,144.52-78.61.31-145.78-63.26-145.83-143.39-.05-81.42-64.36-147.9-145.7-147.84V-11.94h14.55Z"/>
            <path class="cls-4" d="M2248.24,570.06v145.96c-79.84-.75-145.48,64.46-145.46,145.04.02,80.51-65.48,145.25-144.97,145.56-80.01.31-146.08-64.65-146.11-145.53-.03-80.58-65.23-145.21-144.92-145.52-79.24-.31-145.77,63.76-145.78,144.36,0,80.88-64.89,146.4-145.21,146.69-79.88.29-146.09-64.59-146.07-145.56.02-80.58-65.62-145.77-145.46-145.5v-145.96c78.97.12,145.35,64.76,145.33,144.75-.02,81.08,64.78,146.39,145.12,146.71,79.95.32,146-64.48,146-145.52,0-80.9,66.1-145.82,146.1-145.53,79.54.29,144.95,65.07,144.98,145.54.03,80.57,65.23,145.2,144.93,145.51,79.24.31,145.76-63.75,145.78-144.37.02-80.91,65.15-146.97,145.75-146.62Z"/>
            <path class="cls-4" d="M1946.77,1152.05h-135.57c.77-80.1-64.56-145.21-144.38-145.5-80.32-.29-146.29,64.96-146.07,145.5h-133.86c76.24-6.39,133.95-70.69,134.05-147.77.1-80.22,67.15-143.75,145.86-143.45,78.29.3,144.62,63.64,144.76,143.47.13,75.11,54.93,138.97,130.86,146.79l4.34.97Z"/>
            <path class="cls-4" d="M1521.12-11.94c-.03,80.46-66.19,145.86-146.44,145.57-79.73-.29-145.32-65.54-144.93-145.57h291.38Z"/>
            <path class="cls-4" d="M2103.12-11.94c0,80.46-66.22,145.85-146.44,145.56s-145.31-65.54-144.93-145.56h291.38Z"/>
            <path class="cls-4" d="M1364.77,1152.05h-135.5c.66-66.34-44.88-125.13-110.27-141.29-1.74,3.04-3.2,5.01-5.29,7.42l3.69.36c.71.07.53,2.25.25,2.97l-16.87.07-.16-3.17h10.67c-2.94-2.51-3.98-2.86-5.27-6.9l5.8,4.42,6.35-5.58-33.91-3.8v-145.97c78.28-.16,145.28,63.99,145.33,143.66.05,75.2,54.98,139.01,130.83,146.83l4.35.97Z"/>
          </g>
        </g>
      </g>
    </g>
  </g>
</svg>